<?xml version="1.0" standalone="no"?>
<!DOCTYPE svg PUBLIC "-//W3C//DTD SVG 20010904//EN"
 "http://www.w3.org/TR/2001/REC-SVG-20010904/DTD/svg10.dtd">
<svg version="1.0" xmlns="http://www.w3.org/2000/svg"
 width="512.000000pt" height="512.000000pt" viewBox="0 0 512.000000 512.000000"
 preserveAspectRatio="xMidYMid meet">
<metadata>
Created by potrace 1.16, written by Peter Selinger 2001-2019
</metadata>
<g transform="translate(0.000000,512.000000) scale(0.100000,-0.100000)"
fill="black" stroke="none">
<path d="M401 5104 c-179 -48 -339 -209 -386 -389 -13 -52 -15 -305 -15 -2155
0 -2312 -5 -2147 63 -2274 41 -78 145 -182 223 -223 127 -68 -38 -63 2274 -63
2312 0 2147 -5 2274 63 78 41 182 145 223 223 68 127 63 -38 63 2274 0 2312 5
2147 -63 2274 -41 78 -145 182 -223 223 -127 68 39 63 -2279 62 -1801 0 -2108
-2 -2154 -15z m2364 -1314 l0 -175 -194 -3 c-149 -2 -196 1 -203 10 -9 15 -11
309 -2 332 6 14 30 16 203 14 l196 -3 0 -175z m-967 -272 c17 -17 17 -329 0
-346 -13 -13 -351 -18 -382 -6 -14 5 -16 31 -16 178 0 95 3 176 7 179 12 13
378 8 391 -5z m490 -167 c2 -133 -1 -176 -10 -183 -7 -4 -95 -8 -195 -8 -170
0 -183 1 -193 19 -13 26 -13 306 0 332 10 18 21 19 203 17 l192 -3 3 -174z
m480 0 c2 -133 -1 -176 -10 -183 -22 -13 -372 -10 -386 4 -17 17 -17 329 0
346 9 9 63 12 203 10 l190 -3 3 -174z m970 29 c116 -81 212 -219 241 -345 l12
-50 162 0 c142 0 169 -3 221 -23 75 -28 136 -67 136 -88 0 -38 -65 -146 -122
-203 -102 -102 -270 -171 -415 -171 -60 0 -64 -1 -74 -27 -30 -81 -120 -268
-174 -363 -261 -458 -650 -752 -1164 -880 -212 -53 -320 -65 -606 -64 -226 0
-277 3 -387 22 -431 77 -648 223 -808 542 -105 209 -178 541 -168 760 3 75 5
82 36 112 l32 33 1368 5 c1249 5 1372 7 1430 23 67 18 122 43 122 55 0 4 -7
16 -15 26 -62 81 -80 297 -36 436 31 102 109 250 131 250 4 0 39 -22 78 -50z
m-2419 -304 c8 -9 11 -66 9 -182 l-3 -169 -200 0 -200 0 -3 170 c-2 151 -1
171 15 182 25 19 366 18 382 -1z m475 -2 c13 -13 16 -43 16 -172 0 -86 -4
-163 -8 -170 -7 -9 -54 -12 -203 -10 l-194 3 -3 169 c-2 116 1 173 9 182 18
22 361 20 383 -2z m485 2 c8 -9 11 -66 9 -182 l-3 -169 -189 -3 c-130 -2 -193
1 -202 9 -22 18 -20 322 2 343 22 22 365 24 383 2z m480 0 c8 -9 11 -66 9
-182 l-3 -169 -194 -3 c-149 -2 -196 1 -203 10 -4 7 -8 84 -8 170 0 129 3 159
16 172 22 22 365 24 383 2z m479 6 c9 -7 12 -50 10 -183 l-3 -174 -195 0 -195
0 -3 174 c-2 133 1 176 10 183 7 4 92 8 188 8 96 0 181 -4 188 -8z" fill="white"/>
</g>
</svg>
