<?xml version="1.0" standalone="no"?>
<!DOCTYPE svg PUBLIC "-//W3C//DTD SVG 20010904//EN"
 "http://www.w3.org/TR/2001/REC-SVG-20010904/DTD/svg10.dtd">
<svg version="1.0" xmlns="http://www.w3.org/2000/svg"
 width="200.000000pt" height="200.000000pt" viewBox="0 0 200.000000 200.000000"
 preserveAspectRatio="xMidYMid meet">

<g transform="translate(0.000000,200.000000) scale(0.100000,-0.100000)"
fill="white" stroke="none">
<path d="M0 1000 l0 -1000 1000 0 1000 0 0 1000 0 1000 -1000 0 -1000 0 0
-1000z m1215 806 c33 -9 106 -39 163 -67 167 -83 294 -216 378 -392 56 -120
69 -184 69 -347 0 -108 -5 -162 -18 -210 -23 -86 -77 -199 -131 -274 -49 -69
-179 -196 -201 -196 -7 0 -154 208 -326 463 -171 254 -321 472 -332 485 -24
26 -63 29 -89 5 -17 -15 -18 -38 -18 -311 0 -325 1 -332 61 -332 55 0 59 14
59 206 0 107 4 173 9 169 13 -8 511 -742 511 -753 0 -13 -93 -47 -184 -67 -94
-21 -288 -16 -381 9 -235 65 -434 234 -541 459 -57 121 -69 183 -69 352 0 129
3 160 23 225 96 304 338 526 643 590 67 14 304 5 374 -14z"/>
<path d="M1186 1354 c-13 -13 -16 -46 -16 -207 l0 -191 58 -84 57 -84 3 273
c2 243 1 274 -14 291 -21 22 -67 24 -88 2z"/>
</g>
</svg>
