<?xml version="1.0" standalone="no"?>
<!DOCTYPE svg PUBLIC "-//W3C//DTD SVG 20010904//EN"
 "http://www.w3.org/TR/2001/REC-SVG-20010904/DTD/svg10.dtd">
<svg version="1.0" xmlns="http://www.w3.org/2000/svg"
 width="512.000000pt" height="512.000000pt" viewBox="0 0 512.000000 512.000000"
 preserveAspectRatio="xMidYMid meet">
<metadata>
Created by potrace 1.16, written by Peter Selinger 2001-2019
</metadata>
<g transform="translate(0.000000,512.000000) scale(0.100000,-0.100000)"
fill="white" stroke="none">
<path d="M3458 4112 l-218 -66 -32 31 c-18 18 -46 37 -61 42 -44 17 -565 14
-596 -3 -21 -11 -30 -11 -58 1 -28 11 -90 13 -312 11 l-278 -3 -40 -27 c-25
-17 -48 -43 -59 -68 l-18 -40 -252 0 -252 0 -6 23 c-9 38 -46 78 -90 98 -37
17 -70 19 -309 19 -291 0 -309 -3 -359 -56 -15 -16 -32 -42 -37 -57 -8 -20
-11 -428 -11 -1308 l0 -1279 -142 0 c-117 0 -150 -4 -183 -19 -98 -44 -145
-118 -145 -226 0 -107 44 -179 135 -221 l50 -24 1781 0 1781 0 21 23 c32 34
30 89 -4 116 l-27 21 -1764 0 -1764 0 -24 25 c-34 33 -34 87 0 120 l24 25
2351 0 2351 0 24 -25 c34 -33 34 -87 0 -120 l-24 -25 -461 0 -462 0 -30 -30
c-25 -26 -29 -36 -24 -63 13 -69 -5 -67 525 -67 l476 0 50 24 c97 45 139 119
133 237 -3 67 -7 83 -33 120 -17 24 -53 57 -79 74 l-49 30 -236 5 -236 5 63
18 c70 19 102 45 102 83 0 29 -753 2511 -774 2552 -31 60 -88 92 -159 91 -23
0 -140 -30 -259 -67z m529 -927 c139 -457 253 -833 253 -836 0 -10 -464 -149
-471 -141 -12 14 -510 1665 -504 1671 10 10 439 140 455 138 10 -2 89 -246
267 -832z m-2859 643 l3 -138 -251 0 -250 0 0 133 c0 74 3 137 7 141 4 3 115
5 247 4 l241 -3 3 -137z m1310 0 l3 -138 -246 0 -245 0 0 140 0 140 243 -2
242 -3 3 -137z m660 0 l3 -138 -251 0 -250 0 0 133 c0 74 3 137 7 141 4 3 115
5 247 4 l241 -3 3 -137z m-1318 -808 l0 -810 -244 0 -245 0 -3 191 c-3 187 -4
191 -27 210 -31 25 -79 24 -108 -3 l-23 -21 0 -579 0 -578 -250 0 -250 0 0
880 0 880 250 0 250 0 0 -189 0 -190 26 -20 c43 -34 102 -21 123 26 8 16 11
176 11 512 0 268 3 491 7 494 3 4 114 7 245 7 l238 0 0 -810z m-650 420 l0
-90 -250 0 -250 0 0 90 0 90 250 0 250 0 0 -90z m1310 0 l0 -90 -245 0 -245 0
0 90 0 90 245 0 245 0 0 -90z m660 0 l0 -90 -250 0 -250 0 0 90 0 90 250 0
250 0 0 -90z m450 -1077 c154 -508 280 -925 280 -928 0 -3 -128 -5 -285 -5
l-285 0 0 322 c0 317 0 322 -22 345 -31 33 -90 32 -117 -3 -20 -26 -21 -38
-21 -345 l0 -319 -250 0 -250 0 0 880 0 880 250 0 250 0 0 -430 c0 -299 3
-437 11 -454 23 -49 114 -53 139 -6 6 12 10 211 11 512 0 271 2 489 5 483 2
-5 130 -425 284 -932z m-1110 337 l0 -490 -245 0 -245 0 0 490 0 490 245 0
245 0 0 -490z m1876 -596 c14 -47 24 -87 22 -88 -4 -3 -449 -137 -462 -139 -9
-2 -62 160 -55 167 2 2 108 36 234 74 127 39 231 71 232 71 1 1 14 -38 29 -85z
m-2536 -144 l0 -90 -245 0 -245 0 0 90 0 90 245 0 245 0 0 -90z m660 0 l0 -90
-245 0 -245 0 0 90 0 90 245 0 245 0 0 -90z m1984 -212 c19 -62 36 -122 38
-132 3 -17 -24 -28 -232 -91 l-235 -71 -39 128 c-21 71 -37 131 -34 134 5 5
445 142 460 143 4 1 23 -50 42 -111z m-2644 -178 l0 -140 -245 0 -245 0 0 140
0 140 245 0 245 0 0 -140z m660 0 l0 -140 -245 0 -245 0 0 140 0 140 245 0
245 0 0 -140z"/>
</g>
</svg>
